/* XPM */
static char * inspector_icon_xpm[] = {
"32 32 595 2",
"  	c None",
". 	c #CDCABF",
"+ 	c #D4CFC8",
"@ 	c #DAD9D5",
"# 	c #E8E8E3",
"$ 	c #ECEBE4",
"% 	c #B5B0A1",
"& 	c #D3D0CA",
"* 	c #E1DFDA",
"= 	c #BDB9BA",
"- 	c #DCDBD3",
"; 	c #E1E0E2",
"> 	c #E0E2DC",
", 	c #F7F6F4",
"' 	c #F1EFEB",
") 	c #D9D6CF",
"! 	c #B7AFA7",
"~ 	c #E7E4DE",
"{ 	c #ECEAE9",
"] 	c #C9C7C3",
"^ 	c #CBC6CE",
"/ 	c #F0F0E8",
"( 	c #E1E0DA",
"_ 	c #F1F2F2",
": 	c #E9EAE9",
"< 	c #F6F5F2",
"[ 	c #EBEAE3",
"} 	c #E9E9E4",
"| 	c #F2F0CE",
"1 	c #D6D6BE",
"2 	c #CDC7B9",
"3 	c #ECEBE8",
"4 	c #D6D3D8",
"5 	c #C6C5C9",
"6 	c #DAD9D4",
"7 	c #C7C6B7",
"8 	c #E2DEE3",
"9 	c #C5C4CD",
"0 	c #F5F6F5",
"a 	c #DADBDF",
"b 	c #EBECE5",
"c 	c #F9F8F5",
"d 	c #E1DFDD",
"e 	c #D0D0C8",
"f 	c #D4D4CD",
"g 	c #BEBCBC",
"h 	c #B8B8BE",
"i 	c #CFCCCD",
"j 	c #D0CEC7",
"k 	c #E1DFD1",
"l 	c #CDC9CC",
"m 	c #BBB5C5",
"n 	c #EDEDEE",
"o 	c #D3D2CA",
"p 	c #E0E1E6",
"q 	c #D5D4DA",
"r 	c #F5F6F2",
"s 	c #ECECE2",
"t 	c #E9E8E0",
"u 	c #D8D4D3",
"v 	c #BAC1CD",
"w 	c #9DA2B9",
"x 	c #A7A4BB",
"y 	c #C4C4CB",
"z 	c #CECDC1",
"A 	c #D6D4C8",
"B 	c #C9C5C1",
"C 	c #C0BDBC",
"D 	c #BEBEC6",
"E 	c #CFCED2",
"F 	c #D5D3D6",
"G 	c #EFEEF1",
"H 	c #CBC8D5",
"I 	c #EAE9E7",
"J 	c #D8D9DB",
"K 	c #AAA8C8",
"L 	c #8D90B8",
"M 	c #6B73B0",
"N 	c #7477AD",
"O 	c #8383AC",
"P 	c #8080B6",
"Q 	c #8B88A0",
"R 	c #C4C1C2",
"S 	c #DDDAD4",
"T 	c #C8C5C4",
"U 	c #A9ABAE",
"V 	c #E8E5EA",
"W 	c #C7C3C1",
"X 	c #F3F2F2",
"Y 	c #B9B6BE",
"Z 	c #DFDFE5",
"` 	c #B7BCCE",
" .	c #A3AAC4",
"..	c #B5BFC8",
"+.	c #6574B7",
"@.	c #7981B8",
"#.	c #7872A8",
"$.	c #5257BB",
"%.	c #8889AA",
"&.	c #7275B8",
"*.	c #79799D",
"=.	c #A7A4B4",
"-.	c #DDDBD9",
";.	c #A19F9E",
">.	c #E1E0E0",
",.	c #A7A39B",
"'.	c #D2D1D1",
").	c #E8E6E8",
"!.	c #F1F0EF",
"~.	c #CACAC6",
"{.	c #AAB1CA",
"].	c #A9ACB8",
"^.	c #7F89C5",
"/.	c #9CA2D8",
"(.	c #A2ABB2",
"_.	c #6576BA",
":.	c #A0A4C7",
"<.	c #7778B3",
"[.	c #797AC5",
"}.	c #5E63AE",
"|.	c #5560B2",
"1.	c #6168B3",
"2.	c #9299B2",
"3.	c #616AA5",
"4.	c #ABABC1",
"5.	c #A6A8A8",
"6.	c #DEDECC",
"7.	c #E7E7D0",
"8.	c #9E978F",
"9.	c #E0DDD7",
"0.	c #D0CBC6",
"a.	c #D8D5D8",
"b.	c #CAC8CA",
"c.	c #B2B4C5",
"d.	c #8989C1",
"e.	c #4E62CD",
"f.	c #A6A6C0",
"g.	c #9C9FBB",
"h.	c #7F7FB8",
"i.	c #6F73AE",
"j.	c #7A80BC",
"k.	c #9595B8",
"l.	c #8B92AB",
"m.	c #7D80B2",
"n.	c #A4A3B7",
"o.	c #4B4CA7",
"p.	c #7C7FB4",
"q.	c #444FA6",
"r.	c #4453A6",
"s.	c #7B7C9E",
"t.	c #817CA0",
"u.	c #BDBBB7",
"v.	c #938C98",
"w.	c #E8E6D7",
"x.	c #E2E0C5",
"y.	c #727587",
"z.	c #C2B7AC",
"A.	c #D4CFC9",
"B.	c #C3BFCC",
"C.	c #D0C9D2",
"D.	c #D6D2D2",
"E.	c #9396CD",
"F.	c #989FD3",
"G.	c #AAADBC",
"H.	c #7984D0",
"I.	c #8C8FBA",
"J.	c #9999B5",
"K.	c #7F86BC",
"L.	c #6F77C8",
"M.	c #4F5AB9",
"N.	c #3D47B1",
"O.	c #3E49C2",
"P.	c #3A42B8",
"Q.	c #4B51AD",
"R.	c #6D71AE",
"S.	c #747296",
"T.	c #5D609E",
"U.	c #7375A5",
"V.	c #4E4B84",
"W.	c #6D6CAF",
"X.	c #3A439C",
"Y.	c #96999C",
"Z.	c #BBB8A6",
"`.	c #93908F",
" +	c #E1DFD3",
".+	c #DCDABB",
"++	c #8A8683",
"@+	c #808193",
"#+	c #CFCCBF",
"$+	c #B4AFBA",
"%+	c #C1BCC4",
"&+	c #8480CF",
"*+	c #8D93D0",
"=+	c #6172D1",
"-+	c #8086C0",
";+	c #8886B5",
">+	c #6B75CB",
",+	c #5B5EBD",
"'+	c #8288CF",
")+	c #4B57BC",
"!+	c #565FAF",
"~+	c #626BBC",
"{+	c #3B45BF",
"]+	c #4E57AE",
"^+	c #3845B6",
"/+	c #303CAD",
"(+	c #3E4795",
"_+	c #48509F",
":+	c #73768D",
"<+	c #757697",
"[+	c #2C379D",
"}+	c #9292A8",
"|+	c #7B7C91",
"1+	c #A19FA7",
"2+	c #AEAA9D",
"3+	c #B1AAA5",
"4+	c #A9A399",
"5+	c #C0BABA",
"6+	c #C8C095",
"7+	c #CBCDBF",
"8+	c #D0CDCC",
"9+	c #888DC9",
"0+	c #536CE9",
"a+	c #848BDA",
"b+	c #7A85C3",
"c+	c #7B82BC",
"d+	c #4D52D0",
"e+	c #4853D6",
"f+	c #B1B3DE",
"g+	c #ADAAC3",
"h+	c #A8A8D3",
"i+	c #CDC7E0",
"j+	c #D1CFE1",
"k+	c #6365BD",
"l+	c #E0DDEA",
"m+	c #494CB4",
"n+	c #7A81B1",
"o+	c #BEC2DA",
"p+	c #28399A",
"q+	c #273887",
"r+	c #585E8F",
"s+	c #606185",
"t+	c #6D689B",
"u+	c #6560AB",
"v+	c #313893",
"w+	c #A096A6",
"x+	c #CDCCC9",
"y+	c #DDDCD4",
"z+	c #C3BF92",
"A+	c #9397A0",
"B+	c #E4E4D8",
"C+	c #C9CACB",
"D+	c #727ED2",
"E+	c #8E91CA",
"F+	c #8B90C2",
"G+	c #4A59D9",
"H+	c #3E4ED0",
"I+	c #384BD6",
"J+	c #535BAF",
"K+	c #C7C5DA",
"L+	c #565FBE",
"M+	c #7D78AC",
"N+	c #C2C4D9",
"O+	c #343DB6",
"P+	c #CFCBDF",
"Q+	c #2D3EB4",
"R+	c #535EB1",
"S+	c #ABACD1",
"T+	c #203292",
"U+	c #1E2E8B",
"V+	c #1E2889",
"W+	c #434587",
"X+	c #5B5C94",
"Y+	c #283095",
"Z+	c #9091AB",
"`+	c #BDBBB4",
" @	c #E3E0CC",
".@	c #908C76",
"+@	c #9E98A7",
"@@	c #E7E5E7",
"#@	c #D6D7E0",
"$@	c #737DC8",
"%@	c #6C75D1",
"&@	c #7988B8",
"*@	c #3C4FB5",
"=@	c #3146C6",
"-@	c #CACCE2",
";@	c #C2BDD0",
">@	c #8184B0",
",@	c #E5E5E6",
"'@	c #9C97B6",
")@	c #3D47A3",
"!@	c #DFDED9",
"~@	c #2235A0",
"{@	c #6971A5",
"]@	c #9C99BD",
"^@	c #131C99",
"/@	c #0F1E86",
"(@	c #19297E",
"_@	c #676996",
":@	c #6C669A",
"<@	c #9C9A96",
"[@	c #A0977A",
"}@	c #A9A49B",
"|@	c #ACA380",
"1@	c #B8B3C1",
"2@	c #D2D0DD",
"3@	c #A4AACE",
"4@	c #898FC6",
"5@	c #5D5CBA",
"6@	c #767BBD",
"7@	c #5F6DA8",
"8@	c #4D52A7",
"9@	c #4A55B0",
"0@	c #3D42B9",
"a@	c #545BB8",
"b@	c #4B5AB7",
"c@	c #2F39B2",
"d@	c #4D50B6",
"e@	c #33389A",
"f@	c #5B5EA7",
"g@	c #6A6BA4",
"h@	c #312B7C",
"i@	c #5E5F81",
"j@	c #636180",
"k@	c #262787",
"l@	c #6B688B",
"m@	c #D5D3A8",
"n@	c #BCB898",
"o@	c #D8D49B",
"p@	c #ACA4B4",
"q@	c #E0E0E2",
"r@	c #ABAFBE",
"s@	c #968EAB",
"t@	c #626AC2",
"u@	c #7273C1",
"v@	c #5557A9",
"w@	c #6172C1",
"x@	c #6166A5",
"y@	c #5C5FA0",
"z@	c #3F4FA7",
"A@	c #2B3F97",
"B@	c #233593",
"C@	c #353E99",
"D@	c #4E588E",
"E@	c #57608D",
"F@	c #565C8C",
"G@	c #736A7E",
"H@	c #171B73",
"I@	c #757286",
"J@	c #4F508B",
"K@	c #948C94",
"L@	c #BCBA92",
"M@	c #8C837E",
"N@	c #CECBC3",
"O@	c #EEEDEA",
"P@	c #9EA5C9",
"Q@	c #8A91CC",
"R@	c #7581B4",
"S@	c #A3A1C2",
"T@	c #4C4CB3",
"U@	c #243CAB",
"V@	c #7578A9",
"W@	c #353EAA",
"X@	c #4D4F9F",
"Y@	c #6D6F9F",
"Z@	c #4246A0",
"`@	c #514D9D",
" #	c #151C88",
".#	c #3A3F88",
"+#	c #202A93",
"@#	c #666492",
"##	c #2D278B",
"$#	c #5F5C94",
"%#	c #555384",
"&#	c #938E86",
"*#	c #B6B491",
"=#	c #7D776A",
"-#	c #CFCFCC",
";#	c #AEACB3",
">#	c #C7C3B9",
",#	c #9CA0B9",
"'#	c #918AB9",
")#	c #4651B7",
"!#	c #5669B7",
"~#	c #4359B4",
"{#	c #857AA4",
"]#	c #3F49AE",
"^#	c #6E71A5",
"/#	c #6C69B3",
"(#	c #191FA0",
"_#	c #676B93",
":#	c #0C149A",
"<#	c #636090",
"[#	c #101682",
"}#	c #6B6A9A",
"|#	c #585995",
"1#	c #181A87",
"2#	c #594C6F",
"3#	c #847C80",
"4#	c #C9C99A",
"5#	c #C2BE8B",
"6#	c #CBCB9D",
"7#	c #E3E5CD",
"8#	c #C3BEC3",
"9#	c #CFC8C1",
"0#	c #B7B5B9",
"a#	c #B7B3B8",
"b#	c #7D8396",
"c#	c #6E729F",
"d#	c #5C5D9C",
"e#	c #1C2BAD",
"f#	c #1420B3",
"g#	c #5D59A5",
"h#	c #75749F",
"i#	c #0A1CA2",
"j#	c #6A6B93",
"k#	c #4A4A87",
"l#	c #3A4190",
"m#	c #1C2681",
"n#	c #1F1D78",
"o#	c #605B7B",
"p#	c #7B6F74",
"q#	c #B5A883",
"r#	c #9F9391",
"s#	c #CAC88C",
"t#	c #8F856E",
"u#	c #B2ADB4",
"v#	c #B9B4BA",
"w#	c #B0ABB2",
"x#	c #D0CDBE",
"y#	c #D1CEBF",
"z#	c #C5BFB8",
"A#	c #B6B1B3",
"B#	c #545C9D",
"C#	c #5054A4",
"D#	c #4C4F8E",
"E#	c #494785",
"F#	c #434281",
"G#	c #464275",
"H#	c #484073",
"I#	c #49436E",
"J#	c #46427A",
"K#	c #494361",
"L#	c #7C6E76",
"M#	c #A49279",
"N#	c #9B856C",
"O#	c #8B7C70",
"P#	c #726765",
"Q#	c #7A787E",
"R#	c #D5D290",
"S#	c #DADBBC",
"T#	c #DCD9D4",
"U#	c #C4C1BD",
"V#	c #C4C1B5",
"W#	c #CAC3C6",
"X#	c #ADADB5",
"Y#	c #8385AF",
"Z#	c #595B97",
"`#	c #5558AF",
" $	c #252E8F",
".$	c #071598",
"+$	c #0A0EA0",
"@$	c #060886",
"#$	c #0E0A86",
"$$	c #0B1374",
"%$	c #0C0E78",
"&$	c #18247C",
"*$	c #6E6483",
"=$	c #60586F",
"-$	c #A08F63",
";$	c #A8907A",
">$	c #867469",
",$	c #978373",
"'$	c #8D795D",
")$	c #B6AE5B",
"!$	c #877859",
"~$	c #999194",
"{$	c #D8D7D2",
"]$	c #B5B4B8",
"^$	c #E5E4D9",
"/$	c #C8C7CB",
"($	c #C3C4C4",
"_$	c #CDCEC6",
":$	c #B9B6AA",
"<$	c #B2A19E",
"[$	c #595497",
"}$	c #8A8093",
"|$	c #847168",
"1$	c #695C5F",
"2$	c #73654B",
"3$	c #5E544D",
"4$	c #8C796A",
"5$	c #574D7B",
"6$	c #3C314D",
"7$	c #2B2440",
"8$	c #211D40",
"9$	c #47455E",
"0$	c #5E556B",
"a$	c #7F7274",
"b$	c #857053",
"c$	c #7C6A64",
"d$	c #AF9B60",
"e$	c #B3A571",
"f$	c #AEA696",
"g$	c #FBFBEF",
"h$	c #ECEBEC",
"i$	c #F6F6F0",
"j$	c #F7F7F4",
"k$	c #FAF9E4",
"l$	c #EDE699",
"m$	c #D2C47B",
"n$	c #F2C94E",
"o$	c #B18641",
"p$	c #41376A",
"q$	c #7C5D37",
"r$	c #695B41",
"s$	c #8E6F47",
"t$	c #927548",
"u$	c #4F4A67",
"v$	c #2A2143",
"w$	c #140D23",
"x$	c #191617",
"y$	c #06040E",
"z$	c #262120",
"A$	c #4D3F1D",
"B$	c #786A5A",
"C$	c #C1A355",
"D$	c #6C5C58",
"E$	c #A38659",
"F$	c #6C6464",
"G$	c #DAD6C2",
"H$	c #BDBCB7",
"I$	c #DFDBDB",
"J$	c #E7E6E2",
"K$	c #DDDDD4",
"L$	c #CFCDB6",
"M$	c #BBA066",
"N$	c #9E7929",
"O$	c #413859",
"P$	c #4A3838",
"Q$	c #4A3439",
"R$	c #756349",
"S$	c #695750",
"T$	c #2B2455",
"U$	c #3C1B12",
"V$	c #120E21",
"W$	c #1F1718",
"X$	c #161413",
"Y$	c #0F0E1B",
"Z$	c #867451",
"`$	c #907F5D",
" %	c #998C54",
".%	c #BCA865",
"+%	c #AC9462",
"@%	c #776951",
"#%	c #998E85",
"$%	c #625227",
"%%	c #3B2411",
"&%	c #3C2E5A",
"*%	c #4A2F27",
"=%	c #4C3E27",
"-%	c #261C42",
";%	c #221A28",
">%	c #420F0D",
",%	c #4B3D27",
"'%	c #78706B",
")%	c #877E72",
"!%	c #9C894F",
"~%	c #7C7579",
"{%	c #06050F",
"]%	c #2A243A",
"^%	c #372F3D",
"/%	c #43303C",
"(%	c #231B3F",
"_%	c #3D2411",
":%	c #3D2331",
"<%	c #423B3D",
"[%	c #1A0F0D",
"}%	c #302934",
"|%	c #2A1D2F",
"1%	c #2E1B1B",
"2%	c #371715",
"3%	c #6B5F5D",
"4%	c #110A06",
"5%	c #1F1C28",
"6%	c #251739",
"7%	c #301E13",
"8%	c #252726",
"9%	c #393039",
"0%	c #2A150F",
"a%	c #211417",
"b%	c #3F1016",
"c%	c #191229",
"d%	c #060434",
"                  .                           +                 ",
"                  @ # $                 % & * =                 ",
"                - ; > , ' )         ! ~ { ] ^ /                 ",
"                ( _ : < [ } | 1 2 3 4 5 6 7 8 9                 ",
"                0 a b c / d e f g h i j k l m n                 ",
"              o p q r s t u v w x y z A B C D E                 ",
"              F G H I J K L M N O P Q R S T U V                 ",
"            W X Y Z `  ...+.@.#.$.%.&.*.=.-.;.>.,.              ",
"        '.).!.~.{.].^./.(._.:.<.[.}.|.1.2.3.4.5.6.7.8.          ",
"    9.0.a.b.c.d.e.f.g.h.i.j.k.l.m.n.o.p.q.r.s.t.u.v.w.x.y.      ",
"z.A.B.C.D.E.F.G.H.I.J.K.L.M.N.O.P.Q.R.S.T.U.V.W.X.Y.Z.`. +.+++  ",
"@+#+$+%+&+*+=+-+;+>+,+'+)+!+~+{+]+^+/+(+_+:+<+[+}+|+1+2+3+4+5+6+",
"  7+8+9+0+a+b+c+d+e+f+g+h+i+j+k+l+m+n+o+p+q+r+s+t+u+v+w+x+y+z+  ",
"  A+B+C+D+E+F+G+H+I+J+K+L+M+N+O+P+Q+R+S+T+U+V+W+X+Y+Z+`+ @.@    ",
"    +@@@#@$@%@&@*@=@-@;@>@,@'@)@!@~@{@]@^@/@(@_@:@<@[@}@|@      ",
"      1@2@3@4@5@6@7@8@9@0@a@b@c@d@e@f@g@h@i@j@k@l@m@n@o@        ",
"      p@q@r@s@t@u@v@w@x@y@z@A@B@C@D@E@F@G@H@I@J@K@L@M@          ",
"      N@O@P@Q@R@S@T@U@V@W@X@Y@Z@`@ #.#+#@###$#%#&#*#=#          ",
"      -#;#>#,#'#)#!#~#{#]#^#/#(#_#:#<#[#}#|#1#2#3#4#5#          ",
"    6#7#8#9#0#a#b#c#d#e#f#g#h#i#j#k#l#m#n#o#p#q#r#s#t#          ",
"    u#v#w#x#y#z#A#B#N.C#D#E#F#G#H#I#J#K#L#M#N#O#P#Q#R#          ",
"    S#T#U#V#W#X#Y#Z#`# $.$+$@$#$$$%$&$*$=$-$;$>$,$'$)$!$        ",
"  ~${$]$^$/$($_$:$<$[$}$|$1$2$3$4$5$6$7$8$9$0$a$b$c$d$e$        ",
"  f$g$h$i$j$k$l$m$n$o$p$q$r$s$t$u$v$w$x$y$z$A$B$C$D$E$F$        ",
"  G$H$I$J$K$L$    M$N$O$P$Q$R$S$T$U$V$W$X$Y$Z$`$ %.%+%@%        ",
"                  #%$%%%&%*%=%-%;%>%,%              '%)%!%      ",
"                    ~%{%]%^%/%(%_%:%                            ",
"                      <%[%}%|%1%2%                              ",
"                      3%4%5%6%7%8%                              ",
"                        9%0%a%b%                                ",
"                          c%d%                                  ",
"                                                                "};
